<mxfile host="app.diagrams.net" modified="2023-10-12T13:10:22.861Z" agent="Mozilla/5.0 (Macintosh; Intel Mac OS X 10_15_7) AppleWebKit/537.36 (KHTML, like Gecko) Chrome/117.0.0.0 Safari/537.36" etag="Y7pFHi69fBlKUXGXLEkG" version="22.0.0" type="github">
  <diagram name="Page-1" id="6_cxS_HfmL_4XfeAJJhS">
    <mxGraphModel dx="984" dy="575" grid="1" gridSize="10" guides="1" tooltips="1" connect="1" arrows="1" fold="1" page="1" pageScale="1" pageWidth="827" pageHeight="1169" math="0" shadow="0">
      <root>
        <mxCell id="0" />
        <mxCell id="1" parent="0" />
        <mxCell id="Obcd9oATvSEF7_B94J6e-1" value="&lt;h1&gt;&lt;font style=&quot;font-size: 15px;&quot;&gt;&lt;b&gt;HIP&lt;/b&gt;&lt;/font&gt;&lt;/h1&gt;" style="rounded=0;whiteSpace=wrap;html=1;hachureGap=4;fontFamily=Architects Daughter;fontSource=https%3A%2F%2Ffonts.googleapis.com%2Fcss%3Ffamily%3DArchitects%2BDaughter;fontSize=20;align=right;fillColor=#f5f5f5;strokeColor=#666666;fontColor=#333333;sketch=1;curveFitting=1;jiggle=2;shadow=1;" vertex="1" parent="1">
          <mxGeometry x="21.97" y="50" width="788.03" height="410" as="geometry" />
        </mxCell>
        <mxCell id="Obcd9oATvSEF7_B94J6e-2" value="Inbound Visibility - 3PL" style="text;html=1;strokeColor=none;fillColor=none;align=center;verticalAlign=middle;whiteSpace=wrap;rounded=0;fontSize=23;fontStyle=5" vertex="1" parent="1">
          <mxGeometry x="185" y="10" width="485" height="20" as="geometry" />
        </mxCell>
        <mxCell id="Obcd9oATvSEF7_B94J6e-3" value="&lt;h1&gt;&lt;font color=&quot;#0d0d0d&quot; style=&quot;font-size: 15px;&quot;&gt;&lt;b style=&quot;&quot;&gt;V1&lt;/b&gt;&lt;/font&gt;&lt;/h1&gt;" style="rounded=0;whiteSpace=wrap;html=1;hachureGap=4;fontFamily=Architects Daughter;fontSource=https%3A%2F%2Ffonts.googleapis.com%2Fcss%3Ffamily%3DArchitects%2BDaughter;fontSize=20;align=right;fillColor=#fff2cc;strokeColor=#d6b656;sketch=1;curveFitting=1;jiggle=2;" vertex="1" parent="1">
          <mxGeometry x="39" y="82.5" width="750" height="150" as="geometry" />
        </mxCell>
        <mxCell id="Obcd9oATvSEF7_B94J6e-4" style="edgeStyle=orthogonalEdgeStyle;rounded=0;sketch=1;hachureGap=4;jiggle=2;curveFitting=1;orthogonalLoop=1;jettySize=auto;html=1;fontFamily=Architects Daughter;fontSource=https%3A%2F%2Ffonts.googleapis.com%2Fcss%3Ffamily%3DArchitects%2BDaughter;fontSize=16;" edge="1" parent="1" source="Obcd9oATvSEF7_B94J6e-5" target="Obcd9oATvSEF7_B94J6e-7">
          <mxGeometry relative="1" as="geometry" />
        </mxCell>
        <mxCell id="Obcd9oATvSEF7_B94J6e-5" value="3PL files" style="image;html=1;image=img/lib/clip_art/general/Full_Folder_128x128.png;sketch=1;hachureGap=4;jiggle=2;curveFitting=1;fontFamily=Architects Daughter;fontSource=https%3A%2F%2Ffonts.googleapis.com%2Fcss%3Ffamily%3DArchitects%2BDaughter;fontSize=20;labelBackgroundColor=none;" vertex="1" parent="1">
          <mxGeometry x="70" y="125" width="40" height="65" as="geometry" />
        </mxCell>
        <mxCell id="Obcd9oATvSEF7_B94J6e-6" style="edgeStyle=orthogonalEdgeStyle;rounded=0;orthogonalLoop=1;jettySize=auto;html=1;" edge="1" parent="1" source="Obcd9oATvSEF7_B94J6e-7" target="Obcd9oATvSEF7_B94J6e-46">
          <mxGeometry relative="1" as="geometry" />
        </mxCell>
        <mxCell id="Obcd9oATvSEF7_B94J6e-7" value="MFT Files server" style="shape=image;html=1;verticalAlign=top;verticalLabelPosition=bottom;labelBackgroundColor=none;imageAspect=0;aspect=fixed;image=https://cdn2.iconfinder.com/data/icons/whcompare-servers-web-hosting/50/sftp-128.png;hachureGap=4;fontFamily=Architects Daughter;fontSource=https%3A%2F%2Ffonts.googleapis.com%2Fcss%3Ffamily%3DArchitects%2BDaughter;fontSize=20;imageBackground=none;imageBorder=none;sketch=1;curveFitting=1;jiggle=2;labelBorderColor=none;" vertex="1" parent="1">
          <mxGeometry x="383.5" y="133.5" width="63" height="63" as="geometry" />
        </mxCell>
        <mxCell id="Obcd9oATvSEF7_B94J6e-8" value="&lt;h1 style=&quot;font-size: 15px;&quot;&gt;&lt;span style=&quot;background-color: initial;&quot;&gt;&lt;font style=&quot;font-size: 15px;&quot;&gt;V2&lt;/font&gt;&lt;/span&gt;&lt;/h1&gt;" style="rounded=0;whiteSpace=wrap;html=1;hachureGap=4;fontFamily=Architects Daughter;fontSource=https%3A%2F%2Ffonts.googleapis.com%2Fcss%3Ffamily%3DArchitects%2BDaughter;fontSize=20;fillColor=#f8cecc;strokeColor=#b85450;align=right;sketch=1;curveFitting=1;jiggle=2;shadow=1;" vertex="1" parent="1">
          <mxGeometry x="39" y="280" width="750" height="160" as="geometry" />
        </mxCell>
        <mxCell id="Obcd9oATvSEF7_B94J6e-9" value="&lt;font style=&quot;font-size: 15px;&quot;&gt;LOGSTASH&lt;/font&gt;" style="rounded=0;whiteSpace=wrap;html=1;sketch=1;hachureGap=4;jiggle=2;curveFitting=1;fontFamily=Architects Daughter;fontSource=https%3A%2F%2Ffonts.googleapis.com%2Fcss%3Ffamily%3DArchitects%2BDaughter;fontSize=20;fillColor=#d5e8d4;strokeColor=#82b366;align=right;" vertex="1" parent="1">
          <mxGeometry x="39" y="480" width="750" height="160" as="geometry" />
        </mxCell>
        <mxCell id="Obcd9oATvSEF7_B94J6e-10" value="&lt;font style=&quot;font-size: 15px;&quot;&gt;ELASTICSEARCH&lt;/font&gt;" style="rounded=0;whiteSpace=wrap;html=1;sketch=1;hachureGap=4;jiggle=2;curveFitting=1;fontFamily=Architects Daughter;fontSource=https%3A%2F%2Ffonts.googleapis.com%2Fcss%3Ffamily%3DArchitects%2BDaughter;fontSize=20;fillColor=#ffe6cc;strokeColor=#d79b00;align=right;" vertex="1" parent="1">
          <mxGeometry x="34" y="680" width="750" height="470" as="geometry" />
        </mxCell>
        <mxCell id="Obcd9oATvSEF7_B94J6e-11" style="edgeStyle=orthogonalEdgeStyle;rounded=0;sketch=1;hachureGap=4;jiggle=2;curveFitting=1;orthogonalLoop=1;jettySize=auto;html=1;entryX=0.367;entryY=-0.033;entryDx=0;entryDy=0;fontFamily=Architects Daughter;fontSource=https%3A%2F%2Ffonts.googleapis.com%2Fcss%3Ffamily%3DArchitects%2BDaughter;fontSize=16;entryPerimeter=0;" edge="1" parent="1" source="Obcd9oATvSEF7_B94J6e-46" target="Obcd9oATvSEF7_B94J6e-15">
          <mxGeometry relative="1" as="geometry">
            <mxPoint x="378.47" y="359" as="sourcePoint" />
            <mxPoint x="88.47" y="530" as="targetPoint" />
          </mxGeometry>
        </mxCell>
        <mxCell id="Obcd9oATvSEF7_B94J6e-12" value="&lt;font size=&quot;1&quot; style=&quot;&quot;&gt;&lt;b style=&quot;font-size: 12px;&quot;&gt;CSV&lt;/b&gt;&lt;/font&gt;" style="whiteSpace=wrap;html=1;shape=mxgraph.basic.document;sketch=1;hachureGap=4;jiggle=2;curveFitting=1;fontFamily=Architects Daughter;fontSource=https%3A%2F%2Ffonts.googleapis.com%2Fcss%3Ffamily%3DArchitects%2BDaughter;fontSize=9;gradientColor=none;verticalAlign=top;align=center;" vertex="1" parent="1">
          <mxGeometry x="230" y="120" width="30" height="30" as="geometry" />
        </mxCell>
        <mxCell id="Obcd9oATvSEF7_B94J6e-13" value="" style="shape=image;verticalLabelPosition=bottom;labelBackgroundColor=default;verticalAlign=top;aspect=fixed;imageAspect=0;image=data:image/svg+xml,PHN2ZyB4bWxucz0iaHR0cDovL3d3dy53My5vcmcvMjAwMC9zdmciIGhlaWdodD0iNDhweCIgd2lkdGg9IjQ4cHgiIHZpZXdCb3g9IjAgMCA0OCA0OCI+PHBhdGggZD0iTTI1LDI2SDdWNWg2YzYuNjI3LDAsMTIsNS4zNzMsMTIsMTJWMjZ6IiBmaWxsPSIjZmJjMDJkIi8+PHJlY3QgZmlsbD0iIzRkYjZhYyIgeT0iMjUiIHg9IjI0IiBoZWlnaHQ9IjE4IiB3aWR0aD0iMTciLz48cmVjdCBmaWxsPSIjMjZhNjlhIiB5PSIyNSIgeD0iMjQiIGhlaWdodD0iMTgiIHdpZHRoPSI1Ii8+PHBhdGggZD0iTTI1LDI1SDd2MWMwLDkuMzg5LDcuNjExLDE3LDE3LDE3aDFWMjV6IiBmaWxsPSIjNDI0MjQyIi8+PC9zdmc+;" vertex="1" parent="1">
          <mxGeometry x="720" y="500" width="48" height="48" as="geometry" />
        </mxCell>
        <mxCell id="Obcd9oATvSEF7_B94J6e-14" style="edgeStyle=orthogonalEdgeStyle;rounded=0;sketch=1;hachureGap=4;jiggle=2;curveFitting=1;orthogonalLoop=1;jettySize=auto;html=1;entryX=0;entryY=0.5;entryDx=0;entryDy=0;fontFamily=Architects Daughter;fontSource=https%3A%2F%2Ffonts.googleapis.com%2Fcss%3Ffamily%3DArchitects%2BDaughter;fontSize=16;" edge="1" parent="1" source="Obcd9oATvSEF7_B94J6e-15" target="Obcd9oATvSEF7_B94J6e-17">
          <mxGeometry relative="1" as="geometry" />
        </mxCell>
        <mxCell id="Obcd9oATvSEF7_B94J6e-15" value="&lt;font style=&quot;font-size: 12px;&quot;&gt;&amp;nbsp;Logstash&lt;br&gt;Pipeline&lt;/font&gt;" style="rounded=0;whiteSpace=wrap;html=1;sketch=1;hachureGap=4;jiggle=2;curveFitting=1;fontFamily=Architects Daughter;fontSource=https%3A%2F%2Ffonts.googleapis.com%2Fcss%3Ffamily%3DArchitects%2BDaughter;fontSize=20;fillColor=#e1d5e7;strokeColor=#9673a6;align=center;" vertex="1" parent="1">
          <mxGeometry x="50" y="525" width="120" height="60" as="geometry" />
        </mxCell>
        <mxCell id="Obcd9oATvSEF7_B94J6e-16" style="edgeStyle=orthogonalEdgeStyle;rounded=0;sketch=1;hachureGap=4;jiggle=2;curveFitting=1;orthogonalLoop=1;jettySize=auto;html=1;entryX=1;entryY=0.5;entryDx=0;entryDy=0;fontFamily=Architects Daughter;fontSource=https%3A%2F%2Ffonts.googleapis.com%2Fcss%3Ffamily%3DArchitects%2BDaughter;fontSize=16;" edge="1" parent="1" source="Obcd9oATvSEF7_B94J6e-17" target="Obcd9oATvSEF7_B94J6e-19">
          <mxGeometry relative="1" as="geometry">
            <Array as="points">
              <mxPoint x="640" y="500" />
              <mxPoint x="640" y="530" />
            </Array>
          </mxGeometry>
        </mxCell>
        <mxCell id="Obcd9oATvSEF7_B94J6e-17" value="&lt;font style=&quot;font-size: 11px;&quot;&gt;emea_inbound_visibility_3pl&lt;/font&gt;" style="rounded=1;whiteSpace=wrap;html=1;sketch=1;hachureGap=4;jiggle=2;curveFitting=1;fontFamily=Architects Daughter;fontSource=https%3A%2F%2Ffonts.googleapis.com%2Fcss%3Ffamily%3DArchitects%2BDaughter;fontSize=20;fillColor=#f8cecc;strokeColor=#b85450;" vertex="1" parent="1">
          <mxGeometry x="323.47" y="490" width="160" height="20" as="geometry" />
        </mxCell>
        <mxCell id="Obcd9oATvSEF7_B94J6e-18" style="edgeStyle=orthogonalEdgeStyle;rounded=0;sketch=1;hachureGap=4;jiggle=2;curveFitting=1;orthogonalLoop=1;jettySize=auto;html=1;entryX=0;entryY=0.75;entryDx=0;entryDy=0;fontFamily=Architects Daughter;fontSource=https%3A%2F%2Ffonts.googleapis.com%2Fcss%3Ffamily%3DArchitects%2BDaughter;fontSize=16;" edge="1" parent="1" source="Obcd9oATvSEF7_B94J6e-19" target="Obcd9oATvSEF7_B94J6e-21">
          <mxGeometry relative="1" as="geometry">
            <Array as="points">
              <mxPoint x="340" y="530" />
              <mxPoint x="340" y="565" />
            </Array>
          </mxGeometry>
        </mxCell>
        <mxCell id="Obcd9oATvSEF7_B94J6e-19" value="&lt;font style=&quot;font-size: 11px;&quot;&gt;0_input.conf&lt;/font&gt;" style="rounded=1;whiteSpace=wrap;html=1;sketch=1;hachureGap=4;jiggle=2;curveFitting=1;fontFamily=Architects Daughter;fontSource=https%3A%2F%2Ffonts.googleapis.com%2Fcss%3Ffamily%3DArchitects%2BDaughter;fontSize=20;fillColor=#f8cecc;strokeColor=#b85450;" vertex="1" parent="1">
          <mxGeometry x="460" y="520" width="160" height="20" as="geometry" />
        </mxCell>
        <mxCell id="Obcd9oATvSEF7_B94J6e-20" style="edgeStyle=orthogonalEdgeStyle;rounded=0;sketch=1;hachureGap=4;jiggle=2;curveFitting=1;orthogonalLoop=1;jettySize=auto;html=1;entryX=1;entryY=0.5;entryDx=0;entryDy=0;fontFamily=Architects Daughter;fontSource=https%3A%2F%2Ffonts.googleapis.com%2Fcss%3Ffamily%3DArchitects%2BDaughter;fontSize=16;" edge="1" parent="1" source="Obcd9oATvSEF7_B94J6e-21" target="Obcd9oATvSEF7_B94J6e-23">
          <mxGeometry relative="1" as="geometry">
            <Array as="points">
              <mxPoint x="660" y="560" />
              <mxPoint x="660" y="590" />
              <mxPoint x="650" y="590" />
              <mxPoint x="650" y="595" />
            </Array>
          </mxGeometry>
        </mxCell>
        <mxCell id="Obcd9oATvSEF7_B94J6e-21" value="&lt;font style=&quot;font-size: 11px;&quot;&gt;1_filter_1_metadata.conf&lt;/font&gt;" style="rounded=1;whiteSpace=wrap;html=1;sketch=1;hachureGap=4;jiggle=2;curveFitting=1;fontFamily=Architects Daughter;fontSource=https%3A%2F%2Ffonts.googleapis.com%2Fcss%3Ffamily%3DArchitects%2BDaughter;fontSize=20;fillColor=#f8cecc;strokeColor=#b85450;" vertex="1" parent="1">
          <mxGeometry x="357.25" y="550" width="160" height="20" as="geometry" />
        </mxCell>
        <mxCell id="Obcd9oATvSEF7_B94J6e-22" style="edgeStyle=orthogonalEdgeStyle;rounded=0;sketch=1;hachureGap=4;jiggle=2;curveFitting=1;orthogonalLoop=1;jettySize=auto;html=1;entryX=0;entryY=0.25;entryDx=0;entryDy=0;fontFamily=Architects Daughter;fontSource=https%3A%2F%2Ffonts.googleapis.com%2Fcss%3Ffamily%3DArchitects%2BDaughter;fontSize=16;" edge="1" parent="1" source="Obcd9oATvSEF7_B94J6e-23" target="Obcd9oATvSEF7_B94J6e-25">
          <mxGeometry relative="1" as="geometry">
            <Array as="points">
              <mxPoint x="300" y="595" />
              <mxPoint x="300" y="615" />
            </Array>
          </mxGeometry>
        </mxCell>
        <mxCell id="Obcd9oATvSEF7_B94J6e-23" value="&lt;font style=&quot;font-size: 11px;&quot;&gt;1_filter_2_split_content.conf&lt;/font&gt;" style="rounded=1;whiteSpace=wrap;html=1;sketch=1;hachureGap=4;jiggle=2;curveFitting=1;fontFamily=Architects Daughter;fontSource=https%3A%2F%2Ffonts.googleapis.com%2Fcss%3Ffamily%3DArchitects%2BDaughter;fontSize=20;fillColor=#f8cecc;strokeColor=#b85450;" vertex="1" parent="1">
          <mxGeometry x="455" y="580" width="170" height="20" as="geometry" />
        </mxCell>
        <mxCell id="Obcd9oATvSEF7_B94J6e-24" style="edgeStyle=orthogonalEdgeStyle;rounded=0;sketch=1;hachureGap=4;jiggle=2;curveFitting=1;orthogonalLoop=1;jettySize=auto;html=1;fontFamily=Architects Daughter;fontSource=https%3A%2F%2Ffonts.googleapis.com%2Fcss%3Ffamily%3DArchitects%2BDaughter;fontSize=16;" edge="1" parent="1" source="Obcd9oATvSEF7_B94J6e-25" target="Obcd9oATvSEF7_B94J6e-28">
          <mxGeometry relative="1" as="geometry" />
        </mxCell>
        <mxCell id="Obcd9oATvSEF7_B94J6e-25" value="&lt;font style=&quot;font-size: 11px;&quot;&gt;2_output.conf&lt;/font&gt;" style="rounded=1;whiteSpace=wrap;html=1;sketch=1;hachureGap=4;jiggle=2;curveFitting=1;fontFamily=Architects Daughter;fontSource=https%3A%2F%2Ffonts.googleapis.com%2Fcss%3Ffamily%3DArchitects%2BDaughter;fontSize=20;fillColor=#f8cecc;strokeColor=#b85450;" vertex="1" parent="1">
          <mxGeometry x="323.47" y="610" width="160" height="20" as="geometry" />
        </mxCell>
        <mxCell id="Obcd9oATvSEF7_B94J6e-26" value="" style="shape=image;verticalLabelPosition=bottom;labelBackgroundColor=default;verticalAlign=top;aspect=fixed;imageAspect=0;image=data:image/svg+xml,PHN2ZyB4bWxucz0iaHR0cDovL3d3dy53My5vcmcvMjAwMC9zdmciIGhlaWdodD0iNDhweCIgd2lkdGg9IjQ4cHgiIHZpZXdCb3g9IjAgMCA0OCA0OCI+PHBhdGggZD0iTTM3LDI0YzAtMy4zMTQtMi42ODYtNi02LTZINS45MThDNS4zMjMsMTkuODk0LDUsMjEuOTA5LDUsMjRzMC4zMjMsNC4xMDYsMC45MTgsNkgzMSBDMzQuMzE0LDMwLDM3LDI3LjMxNCwzNywyNHoiIGZpbGw9IiMyOWI2ZjYiLz48cGF0aCBkPSJNMjUsNDRjNi41MjQsMCwxMi4zMDUtMy4xMzMsMTUuOTU0LTcuOTY4QzM4LjgzNSwzNC4xNTEsMzYuMDU1LDMzLDMzLDMzSDcuMTU3IEMxMC40NTMsMzkuNTIsMTcuMTk2LDQ0LDI1LDQ0eiIgZmlsbD0iIzRkYjZhYyIvPjxwYXRoIGQ9Ik0yNSw0QzE3LjE5NSw0LDEwLjQ1Myw4LjQ4LDcuMTU3LDE1SDMzYzMuMDUxLDAsNS44MjgtMS4xNDgsNy45NDYtMy4wMjQgQzM3LjI5OSw3LjEzOCwzMS41MjUsNCwyNSw0eiIgZmlsbD0iI2ZmY2EyOCIvPjxwYXRoIGQ9Ik0yMi4wNzMsMTVjLTEuNTEzLTMuMzY3LTMuODQ1LTYuMjg4LTYuNzQ3LTguNTAxQzExLjgxNyw4LjQ0Myw4Ljk1NywxMS40MTIsNy4xNDMsMTVIMjIuMDczeiIgZmlsbD0iI2Y5YTgyNSIvPjxwYXRoIGQ9Ik0xNS4zMjYsNDEuNTAxYzIuOTAyLTIuMjEzLDUuMjMzLTUuMTM0LDYuNzQ3LTguNTAxSDcuMTQzIEM4Ljk1NywzNi41ODgsMTEuODE3LDM5LjU1NywxNS4zMjYsNDEuNTAxeiIgZmlsbD0iIzAwOTY4OCIvPjxwYXRoIGQ9Ik01LjkyOCwxOEM1LjMzMiwxOS44OTUsNSwyMS45MDcsNSwyNHMwLjMzMiw0LjEwNSwwLjkyOCw2aDE3LjIzNEMyMy43MDMsMjguMDkyLDI0LDI2LjA4MSwyNCwyNCBzLTAuMjk3LTQuMDkyLTAuODM3LTZINS45Mjh6IiBmaWxsPSIjMjEyMTIxIi8+PC9zdmc+;" vertex="1" parent="1">
          <mxGeometry x="710" y="840" width="58" height="58" as="geometry" />
        </mxCell>
        <mxCell id="Obcd9oATvSEF7_B94J6e-27" style="edgeStyle=orthogonalEdgeStyle;rounded=0;sketch=1;hachureGap=4;jiggle=2;curveFitting=1;orthogonalLoop=1;jettySize=auto;html=1;fontFamily=Architects Daughter;fontSource=https%3A%2F%2Ffonts.googleapis.com%2Fcss%3Ffamily%3DArchitects%2BDaughter;fontSize=16;" edge="1" parent="1" source="Obcd9oATvSEF7_B94J6e-28" target="Obcd9oATvSEF7_B94J6e-34">
          <mxGeometry relative="1" as="geometry" />
        </mxCell>
        <mxCell id="Obcd9oATvSEF7_B94J6e-28" value="&lt;span style=&quot;border-color: var(--border-color); font-family: Helvetica;&quot;&gt;&lt;b&gt;Ingest pipeline&lt;/b&gt;&lt;br&gt;&lt;/span&gt;&lt;font face=&quot;Helvetica&quot;&gt;neo.inbound-3pl.datas.raw&lt;/font&gt;" style="sketch=0;outlineConnect=0;fontColor=#232F3E;gradientColor=none;fillColor=#4D27AA;strokeColor=none;dashed=0;verticalLabelPosition=bottom;verticalAlign=top;align=center;html=1;fontSize=12;fontStyle=0;aspect=fixed;pointerEvents=1;shape=mxgraph.aws4.redshift_streaming_ingestion;hachureGap=4;jiggle=2;curveFitting=1;fontFamily=Architects Daughter;fontSource=https%3A%2F%2Ffonts.googleapis.com%2Fcss%3Ffamily%3DArchitects%2BDaughter;" vertex="1" parent="1">
          <mxGeometry x="414.49" y="700" width="45.51" height="50" as="geometry" />
        </mxCell>
        <mxCell id="Obcd9oATvSEF7_B94J6e-29" style="edgeStyle=orthogonalEdgeStyle;rounded=0;sketch=1;hachureGap=4;jiggle=2;curveFitting=1;orthogonalLoop=1;jettySize=auto;html=1;fontFamily=Architects Daughter;fontSource=https%3A%2F%2Ffonts.googleapis.com%2Fcss%3Ffamily%3DArchitects%2BDaughter;fontSize=16;" edge="1" parent="1" source="Obcd9oATvSEF7_B94J6e-30" target="Obcd9oATvSEF7_B94J6e-39">
          <mxGeometry relative="1" as="geometry" />
        </mxCell>
        <mxCell id="Obcd9oATvSEF7_B94J6e-30" value="neo.inbound-3pl.datas.raw-03-reconciliation.key" style="sketch=0;outlineConnect=0;fillColor=#fa6800;strokeColor=#C73500;dashed=0;verticalLabelPosition=bottom;verticalAlign=top;align=center;html=1;fontSize=12;fontStyle=0;aspect=fixed;pointerEvents=1;shape=mxgraph.aws4.redshift_streaming_ingestion;fontColor=#000000;" vertex="1" parent="1">
          <mxGeometry x="159.99999999999994" y="810" width="30.95" height="34" as="geometry" />
        </mxCell>
        <mxCell id="Obcd9oATvSEF7_B94J6e-31" style="edgeStyle=orthogonalEdgeStyle;rounded=0;sketch=1;hachureGap=4;jiggle=2;curveFitting=1;orthogonalLoop=1;jettySize=auto;html=1;fontFamily=Architects Daughter;fontSource=https%3A%2F%2Ffonts.googleapis.com%2Fcss%3Ffamily%3DArchitects%2BDaughter;fontSize=16;" edge="1" parent="1" source="Obcd9oATvSEF7_B94J6e-32" target="Obcd9oATvSEF7_B94J6e-30">
          <mxGeometry relative="1" as="geometry">
            <Array as="points">
              <mxPoint x="220" y="767" />
              <mxPoint x="220" y="823" />
            </Array>
            <mxPoint x="190.92915909090925" y="823" as="targetPoint" />
          </mxGeometry>
        </mxCell>
        <mxCell id="Obcd9oATvSEF7_B94J6e-32" value="neo.inbound-3pl.datas.raw-02-normalize" style="sketch=0;outlineConnect=0;fillColor=#fa6800;strokeColor=#C73500;dashed=0;verticalLabelPosition=bottom;verticalAlign=top;align=center;html=1;fontSize=12;fontStyle=0;aspect=fixed;pointerEvents=1;shape=mxgraph.aws4.redshift_streaming_ingestion;fontColor=#000000;" vertex="1" parent="1">
          <mxGeometry x="159.99999999999991" y="750" width="30.95" height="34" as="geometry" />
        </mxCell>
        <mxCell id="Obcd9oATvSEF7_B94J6e-33" style="edgeStyle=orthogonalEdgeStyle;rounded=0;sketch=1;hachureGap=4;jiggle=2;curveFitting=1;orthogonalLoop=1;jettySize=auto;html=1;entryX=0.032;entryY=0.676;entryDx=0;entryDy=0;entryPerimeter=0;fontFamily=Architects Daughter;fontSource=https%3A%2F%2Ffonts.googleapis.com%2Fcss%3Ffamily%3DArchitects%2BDaughter;fontSize=16;" edge="1" parent="1" source="Obcd9oATvSEF7_B94J6e-34" target="Obcd9oATvSEF7_B94J6e-32">
          <mxGeometry relative="1" as="geometry" />
        </mxCell>
        <mxCell id="Obcd9oATvSEF7_B94J6e-34" value="neo.inbound-3pl.datas.raw-01-map.content" style="sketch=0;outlineConnect=0;fillColor=#fa6800;strokeColor=#C73500;dashed=0;verticalLabelPosition=bottom;verticalAlign=top;align=center;html=1;fontSize=12;fontStyle=0;aspect=fixed;pointerEvents=1;shape=mxgraph.aws4.redshift_streaming_ingestion;fontColor=#000000;" vertex="1" parent="1">
          <mxGeometry x="159.99999999999994" y="690" width="30.95" height="34" as="geometry" />
        </mxCell>
        <mxCell id="Obcd9oATvSEF7_B94J6e-35" value="OK" style="edgeStyle=orthogonalEdgeStyle;rounded=0;sketch=1;hachureGap=4;jiggle=2;curveFitting=1;orthogonalLoop=1;jettySize=auto;html=1;fontFamily=Architects Daughter;fontSource=https%3A%2F%2Ffonts.googleapis.com%2Fcss%3Ffamily%3DArchitects%2BDaughter;fontSize=16;" edge="1" parent="1" source="Obcd9oATvSEF7_B94J6e-49" target="Obcd9oATvSEF7_B94J6e-40">
          <mxGeometry relative="1" as="geometry" />
        </mxCell>
        <mxCell id="Obcd9oATvSEF7_B94J6e-36" style="edgeStyle=orthogonalEdgeStyle;rounded=0;sketch=1;hachureGap=4;jiggle=2;curveFitting=1;orthogonalLoop=1;jettySize=auto;html=1;fontFamily=Architects Daughter;fontSource=https%3A%2F%2Ffonts.googleapis.com%2Fcss%3Ffamily%3DArchitects%2BDaughter;fontSize=16;" edge="1" parent="1" source="Obcd9oATvSEF7_B94J6e-49" target="Obcd9oATvSEF7_B94J6e-42">
          <mxGeometry relative="1" as="geometry">
            <Array as="points">
              <mxPoint x="180" y="1060" />
              <mxPoint x="623" y="1060" />
            </Array>
            <mxPoint x="180" y="1010" as="sourcePoint" />
          </mxGeometry>
        </mxCell>
        <mxCell id="Obcd9oATvSEF7_B94J6e-37" value="NOK" style="edgeLabel;html=1;align=center;verticalAlign=middle;resizable=0;points=[];fontSize=20;fontFamily=Architects Daughter;" vertex="1" connectable="0" parent="Obcd9oATvSEF7_B94J6e-36">
          <mxGeometry x="-0.061" relative="1" as="geometry">
            <mxPoint as="offset" />
          </mxGeometry>
        </mxCell>
        <mxCell id="Obcd9oATvSEF7_B94J6e-38" value="" style="edgeStyle=orthogonalEdgeStyle;rounded=0;orthogonalLoop=1;jettySize=auto;html=1;" edge="1" parent="1" source="Obcd9oATvSEF7_B94J6e-39" target="Obcd9oATvSEF7_B94J6e-49">
          <mxGeometry relative="1" as="geometry" />
        </mxCell>
        <mxCell id="Obcd9oATvSEF7_B94J6e-39" value="neo.inbound-3pl.datas.raw-04-cleanup" style="sketch=0;outlineConnect=0;fillColor=#fa6800;strokeColor=#C73500;dashed=0;verticalLabelPosition=bottom;verticalAlign=top;align=center;html=1;fontSize=12;fontStyle=0;aspect=fixed;pointerEvents=1;shape=mxgraph.aws4.redshift_streaming_ingestion;fontColor=#000000;" vertex="1" parent="1">
          <mxGeometry x="159.99999999999994" y="890" width="30.95" height="34" as="geometry" />
        </mxCell>
        <mxCell id="Obcd9oATvSEF7_B94J6e-40" value="&lt;font style=&quot;font-size: 15px;&quot;&gt;Index&lt;/font&gt;" style="shape=cylinder3;whiteSpace=wrap;html=1;boundedLbl=1;backgroundOutline=1;size=15;sketch=1;hachureGap=4;jiggle=2;curveFitting=1;fontFamily=Architects Daughter;fontSource=https%3A%2F%2Ffonts.googleapis.com%2Fcss%3Ffamily%3DArchitects%2BDaughter;fontSize=20;fillColor=#60a917;strokeColor=#2D7600;fontColor=#ffffff;" vertex="1" parent="1">
          <mxGeometry x="423.47" y="894" width="60" height="80" as="geometry" />
        </mxCell>
        <mxCell id="Obcd9oATvSEF7_B94J6e-41" style="edgeStyle=orthogonalEdgeStyle;rounded=0;sketch=1;hachureGap=4;jiggle=2;curveFitting=1;orthogonalLoop=1;jettySize=auto;html=1;entryX=0.5;entryY=1;entryDx=0;entryDy=0;entryPerimeter=0;fontFamily=Architects Daughter;fontSource=https%3A%2F%2Ffonts.googleapis.com%2Fcss%3Ffamily%3DArchitects%2BDaughter;fontSize=16;" edge="1" parent="1" source="Obcd9oATvSEF7_B94J6e-42" target="Obcd9oATvSEF7_B94J6e-43">
          <mxGeometry relative="1" as="geometry" />
        </mxCell>
        <mxCell id="Obcd9oATvSEF7_B94J6e-42" value="&lt;span style=&quot;border-color: var(--border-color); font-family: Helvetica;&quot;&gt;&lt;b&gt;Ingest pipeline&lt;/b&gt;&lt;br&gt;&lt;/span&gt;&lt;font face=&quot;Helvetica&quot;&gt;neo.inbound-3pl.datas.dlq&lt;/font&gt;" style="sketch=0;outlineConnect=0;fontColor=#232F3E;gradientColor=none;fillColor=#4D27AA;strokeColor=none;dashed=0;verticalLabelPosition=bottom;verticalAlign=top;align=center;html=1;fontSize=12;fontStyle=0;aspect=fixed;pointerEvents=1;shape=mxgraph.aws4.redshift_streaming_ingestion;hachureGap=4;jiggle=2;curveFitting=1;fontFamily=Architects Daughter;fontSource=https%3A%2F%2Ffonts.googleapis.com%2Fcss%3Ffamily%3DArchitects%2BDaughter;" vertex="1" parent="1">
          <mxGeometry x="600" y="924" width="45.51" height="50" as="geometry" />
        </mxCell>
        <mxCell id="Obcd9oATvSEF7_B94J6e-43" value="&lt;font style=&quot;font-size: 15px;&quot;&gt;Index&lt;/font&gt;" style="shape=cylinder3;whiteSpace=wrap;html=1;boundedLbl=1;backgroundOutline=1;size=15;sketch=1;hachureGap=4;jiggle=2;curveFitting=1;fontFamily=Architects Daughter;fontSource=https%3A%2F%2Ffonts.googleapis.com%2Fcss%3Ffamily%3DArchitects%2BDaughter;fontSize=20;fillColor=#60a917;strokeColor=#2D7600;fontColor=#ffffff;" vertex="1" parent="1">
          <mxGeometry x="600" y="760" width="60" height="80" as="geometry" />
        </mxCell>
        <mxCell id="Obcd9oATvSEF7_B94J6e-44" value="&lt;font style=&quot;font-size: 13px;&quot;&gt;&lt;b&gt;datas-neo.inbound.3pl-raw&lt;/b&gt;&lt;/font&gt;" style="text;html=1;strokeColor=none;fillColor=none;align=center;verticalAlign=middle;whiteSpace=wrap;rounded=0;fontSize=20;fontFamily=Architects Daughter;" vertex="1" parent="1">
          <mxGeometry x="378.47" y="864" width="150" height="30" as="geometry" />
        </mxCell>
        <mxCell id="Obcd9oATvSEF7_B94J6e-45" value="&lt;font style=&quot;font-size: 13px;&quot;&gt;&lt;b&gt;datas-neo.inbound.&lt;/b&gt;&lt;b style=&quot;border-color: var(--border-color);&quot;&gt;3pl&lt;/b&gt;&lt;b&gt;-raw.dlq&lt;/b&gt;&lt;/font&gt;" style="text;html=1;strokeColor=none;fillColor=none;align=center;verticalAlign=middle;whiteSpace=wrap;rounded=0;fontSize=20;fontFamily=Architects Daughter;" vertex="1" parent="1">
          <mxGeometry x="550" y="730" width="180" height="30" as="geometry" />
        </mxCell>
        <mxCell id="Obcd9oATvSEF7_B94J6e-46" value="Confluent - Kafka" style="sketch=0;outlineConnect=0;fontColor=#232F3E;gradientColor=none;fillColor=#7AA116;strokeColor=none;dashed=0;verticalLabelPosition=bottom;verticalAlign=top;align=center;html=1;fontSize=12;fontStyle=0;aspect=fixed;pointerEvents=1;shape=mxgraph.aws4.topic_2;" vertex="1" parent="1">
          <mxGeometry x="370.47" y="310" width="53" height="78" as="geometry" />
        </mxCell>
        <mxCell id="Obcd9oATvSEF7_B94J6e-47" value="&lt;font style=&quot;font-size: 12px;&quot;&gt;&lt;b&gt;JSON&lt;/b&gt;&lt;/font&gt;" style="whiteSpace=wrap;html=1;shape=mxgraph.basic.document;sketch=1;hachureGap=4;jiggle=2;curveFitting=1;fontFamily=Architects Daughter;fontSource=https%3A%2F%2Ffonts.googleapis.com%2Fcss%3Ffamily%3DArchitects%2BDaughter;fontSize=9;gradientColor=none;verticalAlign=top;align=center;" vertex="1" parent="1">
          <mxGeometry x="333.03" y="240" width="50.47" height="30" as="geometry" />
        </mxCell>
        <mxCell id="Obcd9oATvSEF7_B94J6e-48" value="&lt;font style=&quot;font-size: 12px;&quot;&gt;&lt;b&gt;JSON&lt;/b&gt;&lt;/font&gt;" style="whiteSpace=wrap;html=1;shape=mxgraph.basic.document;sketch=1;hachureGap=4;jiggle=2;curveFitting=1;fontFamily=Architects Daughter;fontSource=https%3A%2F%2Ffonts.googleapis.com%2Fcss%3Ffamily%3DArchitects%2BDaughter;fontSize=9;gradientColor=none;verticalAlign=top;align=center;" vertex="1" parent="1">
          <mxGeometry x="209.53" y="310" width="50.47" height="30" as="geometry" />
        </mxCell>
        <mxCell id="Obcd9oATvSEF7_B94J6e-49" value="neo.inbound-3pl.datas.raw-05-event.ingested" style="sketch=0;outlineConnect=0;fillColor=#fa6800;strokeColor=#C73500;dashed=0;verticalLabelPosition=bottom;verticalAlign=top;align=center;html=1;fontSize=12;fontStyle=0;aspect=fixed;pointerEvents=1;shape=mxgraph.aws4.redshift_streaming_ingestion;fontColor=#000000;" vertex="1" parent="1">
          <mxGeometry x="159.99999999999994" y="960" width="30.95" height="34" as="geometry" />
        </mxCell>
      </root>
    </mxGraphModel>
  </diagram>
</mxfile>
